<svg xmlns="http://www.w3.org/2000/svg" enable-background="new 0 0 4000 3000" viewBox="0 0 4000 3000"><path fill="#4e2162" d="M433.1 505.2C344.3 613.8 647.8 1857.3 906 2089.6c124.3 111.8 1816.9 139.3 2074.7-22.1 257.7-161.4 508.5-1428.6 465.1-1562.3s-942.3-193.7-1605.5-191.9c-663.2 1.7-1304 65.9-1407.2 191.9z"/><path fill="#3279af" d="m644.6 2419 161.9-505.7-25.7-210.5s64.4-136.3 207.7-136.3 290.7 136.2 338.9 347.7 54.4 504.7 54.4 504.7h-305.6l-29.2-229.1-77.3 229.2H644.6z"/><path fill="#fff" d="M1291.1 1805H793.2l-12.5-102.1s64.4-136.2 207.7-136.2c116.9 0 236.4 90.3 302.7 238.3z"/><path fill="#3279af" d="M1328.4 984.3s2.3 113.1 78.1 115.3c75.8 2.2 106.6-398.7 71.3-455.4S1250.7 418.9 1125 423.9c-170.7 6.7-245.4 166.1-282.9 298-29.3 103 1.5 282.5 49.5 334.8 48 52.3 87.5-12.1 87.5-12.1s42.3 32.7 118.7 23.3"/><path fill="#3279af" d="m3378.2 2419.4-39.1-391.4h-405.6l-35.1 390.9z"/><path fill="#4e2162" d="m3339.2 2027.2-274 80.9 26.1 310.9h-192.8l35-391.1z"/><path fill="#ffcb5c" d="m2993.6 2456 90-11 26.3 11 26.9 45.6"/><path fill="#d84861" d="M3195 1464.6c151.5-191.7-73.2-256.1-107.5-308.9-34.3-52.8 27-219.3-53.9-285.5-80.9-66.2-180.4-32-180.4-32s-82.4-81.3-191.3-45.5-210.5 222.1-233.2 278.5c-22.7 56.4 93.1 65.3 80.6 129.5-12.6 64.2-80.8 155.8 10.1 233.6 0 0 218.1 350.1 327.1 353.6 108.7 3.6 348.5-323.3 348.5-323.3z"/><path fill="#b23998" d="M2795.9 1969.8s-49 29-111 0c-79.5-37.2-208.8-380.6-208.8-380.6l206.5-40.9 47.7 118.9c41.9-77.5 55.2-271.8 55.2-271.8s27.2-95.9 113.8-12.7-103.4 587.1-103.4 587.1z"/><path fill="#4e2162" d="M2795.9 1969.8s189.9-503.8 103.3-587-113.8 12.7-113.8 12.7-13.3 194.3-55.2 271.8l1 2.5c39.9 99.4 43.7 209.7 10.7 311.7-.1.4-.3.8-.4 1.3 32.7-.3 54.4-13 54.4-13z"/><path fill="#ffcb5c" d="m2682.6 1548.3-95.9 19-17-36-77.2 12.4-119.3-32.1-37.3-109.2c35.2-2.4 57 62.6 57 62.6l-7.3-76.4c24.3-7.7 75.8 24.7 85 30.3 3.3 2 7 12.3 10.4 24.8 83.5-28.4 110.1 17.2 110.1 17.2 37.2 10.5 69.7 35.3 91.5 87.4z"/><path fill="none" stroke="#4e2162" stroke-linecap="round" stroke-linejoin="round" stroke-miterlimit="10" stroke-width="10" d="m2531.4 1491.9-38.8 4.3s-5.3-29.2-11.5-52.2h-.1"/><path fill="none" stroke="#4e2162" stroke-linecap="round" stroke-linejoin="round" stroke-miterlimit="10" stroke-width="10" d="m2465 1536.3-21.2-132.7"/><path fill="none" stroke="#4e2162" stroke-linecap="round" stroke-linejoin="round" stroke-miterlimit="10" stroke-width="10" d="m2412.9 1390.6 15.5 135.9"/><path fill="none" stroke="#4e2162" stroke-linecap="round" stroke-linejoin="round" stroke-miterlimit="10" stroke-width="10" d="m2393 1465 5.5 53.4"/><path fill="#3279af" d="M2411.8 1658.5c34.4-140.3-335.3-264.5-390.7-356.5h-257.9c-60.8 84-419.8 219.5-413.4 365.5"/><path fill="#ffcb5c" d="M2073 1351.4c-9.9 31.7-48.8 116.3-180.5 116.3-133 0-174.6-86.2-185.2-117.2 25.4-17.7 45.2-34.6 55.8-48.6H2021c9.5 15.1 28 32.1 52 49.5z"/><path fill="#4e2162" d="M1763.1 1302.3 1837 1435h117.5l66.6-133.1"/><path fill="#fff" d="M2122.1 1079.1c23.4-83.4 36.3-216.5-33.1-278.5s-233-128.9-297.6-116.5c-64.5 12.4-23.7 74.1-23.7 74.1s-122.5-79.1-146-39.4c-23.5 39.7 42.4 101.5 42.4 101.5s-61.1-9.7-80.9 18c-19.8 27.7 42 80.5 42 80.5 2.4 63.6 38.9 147.5 38.9 147.5l-5.3 66.3 463 5.4.3-58.9z"/><path fill="#ffcb5c" d="m2117.4 1185.3-30.6 12.9c-8 22.2-17.8 45.7-27.7 59.6-23.3 32.8-117.8 125.2-117.8 125.2h-97.5s-93.9-85.8-113.1-124.6c-7.7-15.6-18.4-37.9-28.4-58.9l-22.9-8.1s-69.1-45.8-51.4-125.1c6.4-28.6 36 0 36 0l15.4 42.6c40.4-38.7 35.6-169.8 35.6-169.8s14 28.8 48 34.2c34 5.4 56.3-80.3 56.3-80.3s19.3 48.5 70.6 49.8c51.3 1.3 86.6-30.8 86.6-30.8s4 104 88.9 52.8c0 0 9.6 130.3 39.7 144l16.8-29.8s16.9-28.9 24.7-13.9c30.5 57.5-29.2 120.2-29.2 120.2z"/><path fill="none" stroke="#4e2162" stroke-linecap="round" stroke-linejoin="round" stroke-miterlimit="10" stroke-width="10" d="M2086.9 1198.2c10.9-30.2 18.4-58.3 18.4-58.3"/><path fill="none" stroke="#4e2162" stroke-linecap="round" stroke-linejoin="round" stroke-miterlimit="10" stroke-width="10" d="M1674.3 1139.8s13.3 28.5 28.1 59.6"/><path fill="none" stroke="#4e2162" stroke-linecap="round" stroke-linejoin="round" stroke-miterlimit="10" stroke-width="10" d="M469 2419h3061"/><path fill="none" stroke="#4e2162" stroke-linecap="round" stroke-linejoin="round" stroke-miterlimit="10" stroke-width="10" d="m1855.5 1087.2 13.5 47.6v29.2"/><path fill="none" stroke="#4e2162" stroke-linecap="round" stroke-linejoin="round" stroke-miterlimit="10" stroke-width="10" d="m1861 1246.8 23.5 14.5 21-7.3"/><path fill="#4e2162" d="M1736.9 1017.2s56.7-35.1 109.1 0c0 0-7.8 20-17.8 15.9-10-4.2-60.1-10-72.6-5.8-12.5 4.2-27.6 19.7-27.6 19.7l8.9-29.8z"/><path fill="#4e2162" d="M2040.1 1015.6s-53.8-33.4-106.2 1.6c0 0 13.9 18.3 23.9 14.1 10-4.2 54-8.3 66.5-4.1 12.5 4.2 27.6 19.7 27.6 19.7l-11.8-31.3z"/><path fill="none" stroke="#4e2162" stroke-linecap="round" stroke-linejoin="round" stroke-miterlimit="10" stroke-width="10" d="M1855 1297h50"/><path fill="#ffcb5c" d="M1383 852.2c-15.1 50.6-68.9 170.3-107.4 195.8h-.1c-20.6 13.1-108.9 68.9-128 71.4-14 1.8-84.5-81-99.1-80.8-2 0-4.1.4-6.3 1.1 51.3-40.9 68.6-332 68.7-335 0 1.7.2 100.1 53.9 105 54.2 4.9 65.7-115.2 65.7-115.2s4.9 105.3 49.4 118.5c44.4 13.1 63.9-101.8 63.9-101.8s-4.9 145.6 33.3 142.3c2.1-.1 4.1-.6 6-1.3z"/><path fill="none" stroke="#4e2162" stroke-linecap="round" stroke-linejoin="round" stroke-miterlimit="10" stroke-width="10" d="M1383 852.2c32.8-12 38.7-96.3 38.7-96.3"/><path fill="#ffcb5c" d="M1254.8 1267.9c-29.7 53.4-142.3 101-142.3 101s-159 328.2-258 377c-35.2 17.3-145-102.3-182.2-245.5-52.3-201.9-22.1-265.8 20.9-307 49-47 249.7-62.7 269.3-85.4 18.6-21.5 21-124.5 21.2-135.9 8.9 41.1 23.8 75 47.6 72.9 5.7-3.5 11.8-6.2 17.1-6.2 14.7-.1 85.2 82.6 99.1 80.8 21.6-2.8 132.3-74.2 132.3-74.2s24.2 31.6-25.1 84.3 29.8 84.8.1 138.2z"/><path fill="#fff" d="M1034.4 1303.5c-49.9 54.3-132.1 123.8-181.1 164l-46.4-318.8c37.8-9 77.2-16.3 107.1-23.3.5 30.8 9.2 171.8 120.4 178.1z"/><path fill="none" stroke="#4e2162" stroke-linecap="round" stroke-linejoin="round" stroke-miterlimit="10" stroke-width="10" d="M812.9 1500s273.1-214.3 263.7-264.3c-9.4-50 2.9-86.1-9.7-115.6s-54.6-60.6-54.6-60.6 8.9-8.6 19.1-14.7"/><path fill="#ffcb5c" d="M1239.8 1154s133.8 17.9 167.7 84.2c33.9 66.3-97.8 509.1-167.7 516-69.9 7-252.1-161.6-252.1-161.6"/><path fill="#ffcb5c" stroke="#4e2162" stroke-linecap="round" stroke-linejoin="round" stroke-miterlimit="10" stroke-width="10" d="M799.1 1338h-47.6l-63.6 38.2-15.6 45.2 21.3 6.2 29.6-37.9 44.4-7.8-34.5 24.4-22.9 41.5 41.6 52.5 67.6-38.6 33.9 5.7 58.4-48.3z"/><path fill="none" stroke="#4e2162" stroke-linecap="round" stroke-linejoin="round" stroke-miterlimit="10" stroke-width="10" d="m725.7 1467.4 32.3-42.5 41.5-24.8"/><path fill="none" stroke="#4e2162" stroke-linecap="round" stroke-linejoin="round" stroke-miterlimit="10" stroke-width="10" d="m738.5 1483.7 42.3-35.9 42.2-14"/><path fill="none" stroke="#4e2162" stroke-linecap="round" stroke-linejoin="round" stroke-miterlimit="10" stroke-width="10" d="M1285.8 886.7s-32.9 24.5-17.1 61.9-7.6 49.1-13.3 48.9"/><path fill="none" stroke="#4e2162" stroke-linecap="round" stroke-linejoin="round" stroke-miterlimit="10" stroke-width="10" d="m1195.7 1038.6 41.4-11.4"/><path fill="#fff" d="m1230.9 1296.7-42.9 250-140.9-53.7 65.4-124.1z"/><path fill="none" stroke="#4e2162" stroke-linecap="round" stroke-linejoin="round" stroke-miterlimit="10" stroke-width="10" d="m1239.8 1566.5-192.7-73.5"/><path fill="#4e2162" d="M1251.6 829.3s-26-20.4-53.8-35.3c-8.7 10.5-19.5 17-33 15.7-16.3-1.5-27.8-11.6-35.7-25-18.7 9.8-28.1 28.2-28.1 28.3 0 0 13.8-5.8 32.3-7.6 18.5-1.8 77.1 26.9 92.6 35.8 13.4 7.8 25.7-11.9 25.7-11.9z"/><path fill="#4e2162" d="M1377 853.6c-9.2.8-15.8-7-20.7-19.4-23.2-.4-44.6 4.7-44.6 4.7s-2 12.4 7.6 16.6c9.5 4.2 45.2-2.8 61.8 2.8.7-2.1 1.3-4.2 1.9-6.1-1.9.7-3.9 1.2-6 1.4z"/><path fill="#ffcb5c" d="M2715.1 935.9c95.7 166.1 170.9 139.8 170.9 139.8s20.9-68.3 50.3-72.2c29.4-3.9 51 27.8 48.6 85.8-2.1 51.4-18.9 86.1-18.9 86.1l-31.4 14.9s-3.3 59.5-10.8 79.5c-15.6 41.2-116.4 137-185.1 137.3-68.6.3-101-47.6-130.1-81.4-62.9-73.1-48-153.8-48-153.8l-25.3-61.1c146.8-57.8 179.8-174.9 179.8-174.9z"/><path fill="#4e2162" d="M2640.4 1301.9s38.1 2.2 79.9-5c0 0 23.6 55.8-38.7 51 0 0-29.1-12.1-41.2-46z"/><path fill="none" stroke="#4e2162" stroke-linecap="round" stroke-linejoin="round" stroke-miterlimit="10" stroke-width="10" d="M2631.4 1164.1s29 31.8 0 64.8 6.4 44 6.4 44"/><path fill="#4e2162" d="m2535.3 1110.6 74.1-10.4s0 19.9-15.8 21.4-51.7 4.7-51.7 4.7"/><path fill="#4e2162" d="M2670.1 1093.7s0 18.8 18 19.6 78.8-23.8 119.3-3.9c0 0-19.1-22-38.4-25.7-19.3-3.7-98.9 10-98.9 10z"/><path fill="none" stroke="#4e2162" stroke-linecap="round" stroke-linejoin="round" stroke-miterlimit="10" stroke-width="10" d="M2958.6 1064.4s-10.5-22.4-24.2-16 0 88.7 0 88.7"/><path fill="#b23998" d="M3378.3 1961.8c0 34.6-39.1 65.4-39.1 65.4l-337.1 8.7c9.5 161 26.4 324.3 26.4 324.3l-254.9-29.1s30.7-425 27.5-547.3c-3.2-122.3-48.6-535.9 120.8-534.6 205.6 1.6 379.9 357.8 406 609.5 5.6 53.9 50.4 68.5 50.4 103.1z"/><path fill="none" stroke="#4e2162" stroke-linecap="round" stroke-linejoin="round" stroke-miterlimit="10" stroke-width="10" d="M3002 2035.9c-5.8-97-8.8-193.1-4-252.2 12.9-157.2 30.4-243.7 30.4-243.7"/><path fill="#ffcb5c" d="M3146.9 2541.1c-11.5 0-54.3-16.2-54.3-16.2l-104.3 1.6c8.3 6.2 14.1 12 15.4 16.4 5.8 20.3-12.8 33.3-12.8 33.3-39.8-32.4-104.4-42.9-145.9-46.2-11.9-1-22.9-5.7-31.7-13-8.7-7.4-15.2-17.4-18.2-29-2-7.7-2.3-15.7-.9-23.5l10.8-62 10-66.7 116.7 13.1-12.4 47.5 74 59.6 109.3 27.5 72.6 38.6c.2 0 6.3 19-28.3 19z"/><path fill="none" stroke="#4e2162" stroke-linecap="round" stroke-linejoin="round" stroke-miterlimit="10" stroke-width="10" d="M2898.4 2476.3s60.5 28.2 90 50.2"/><path fill="#4e2162" d="M1933.9 1126.4s-5.8-54.4 55.1-62.8c39.8-5.5 62.8 17.5 68.4 34l-19.8 11.9"/><path fill="#fff" d="M1933.9 1126.4s6-41.4 53.9-48.7c47.8-7.4 55.2 22.6 55.2 22.6s-20.6 55.2-109.1 26.1z"/><path fill="#4e2162" d="M2012.2 1129.1c-11.6 4.8-27.2 7.4-47.9 4.6 0 0-8.8-46.1 27.1-49.3 33.8-3.1 21 43.8 20.8 44.7z"/><path fill="#4e2162" d="M1845.9 1126.4s4.4-55-59-66.5c-42-7.6-65.4 34.7-65.4 34.7l25.1 20.2"/><path fill="#fff" d="M1845.9 1126.4s-6-41.4-53.9-48.7c-47.8-7.4-55.2 22.6-55.2 22.6s20.7 55.2 109.1 26.1z"/><path fill="#4e2162" d="M1815.6 1133.6c-20.7 2.9-36.3.3-47.9-4.6-.3-.9-14.9-42.1 20.8-44.8 35.9-2.6 27.1 49.4 27.1 49.4z"/><path fill="none" stroke="#4e2162" stroke-linecap="round" stroke-linejoin="round" stroke-miterlimit="10" stroke-width="10" d="m3045.8 2469.2 57 14.3 34 18.1"/><path fill="#4e2162" d="M2625.4 1195.7s-.6-62-47-58.6c-16.5 1.2-33.9 12.7-33.9 12.7l21.4 6.2"/><path fill="#fff" d="M2567 1148.5s-5.9 18.5 10.2 47.5h48.2s-3.6-61-58.4-47.5z"/><path fill="#4e2162" d="M2611.3 1196h-34.1c-10-18-11.6-31.7-11.3-39.8 8.2-3.4 35.1-11.2 45.4 39.8z"/><path fill="#4e2162" d="M2696.5 1190.1s-9.8-63 49.4-67.7c39.6-3.1 90.4 23.9 90.4 23.9l-21 9.9s-8.5 16.1-20 18.5"/><path fill="#fff" d="M2696.5 1190.1s-3.1-49.3 43.3-56.2c46.4-7 67.6 16.2 67.6 16.2s-8.5 45.1-58.9 45.7-52-5.7-52-5.7z"/><path fill="#4e2162" d="M2766.4 1193.3c-5.3 1.4-11.3 2.3-17.9 2.4-20.6.2-33.1-.7-40.6-1.8-2.2-10.2-6.7-41.6 18-50.8 25.2-9.4 37.4 36.5 40.5 50.2z"/><path fill="#4e2162" d="m2931.9 2348.9-125.1 42.9 8.4-56z"/><path fill="#d84861" d="M2724.5 1314.6c-26.6-.9-44 19-51 28.9 4.8 3.1 8.1 4.4 8.1 4.4 38.7 3 44.3-17.4 42.9-33.3z"/><path fill="none" stroke="#4e2162" stroke-linecap="round" stroke-linejoin="round" stroke-miterlimit="10" stroke-width="10" d="M1031.3 1044.8c5.7-3.5 11.8-6.2 17.1-6.2 14.7-.1 85.2 82.6 99.1 80.8 21.6-2.8 132.3-74.2 132.3-74.2s24.2 31.6-25.1 84.3 29.7 84.9 0 138.3c-29.7 53.4-142.3 101-142.3 101s-57.4 118.6-124.8 223.8"/><path fill="#4e2162" d="m1122.2 1521.6-134.5 71c21.3-33.3 41.6-67.9 59.4-99.7l75.1 28.7z"/><path fill="none" stroke="#4e2162" stroke-linecap="round" stroke-linejoin="round" stroke-miterlimit="10" stroke-width="10" d="M969.4 836s.6 74.9 13.6 134.9c0 0 0 0 0 0 1 .3.3.7.3 1"/><path fill="#4e2162" d="M1214 898.7s5.6-42.4-28.5-55.6c-34.1-13.2-88.2 3.2-88.2 3.2l13.2 14.1s3.4 10.5 18.1 14.6"/><path fill="#fff" d="M1118.2 858.2s34.9-13.9 61.7-6.2c26.8 7.7 33.9 46.6 33.9 46.6-76.6 13.7-95.6-40.4-95.6-40.4z"/><path fill="#4e2162" d="M1187 854.9c-26.8 2.4-31.6 27.6-31.5 39.5 14.1 5.8 33 8.6 58.2 4.1 0 0-5.7-31.8-26.7-43.6z"/><path fill="#4e2162" d="M1299 909.6s7.1-51.8 48.3-45.5c18.5 2.8 35.8 11.1 35.8 11.1l-23.5 11.5"/><path fill="#fff" d="M1299 909.6s19.9-47.9 61.8-34.4c0 0-.7 27.7-14.9 38.5.1 0-25 10.3-46.9-4.1z"/><path fill="#4e2162" d="M1360.8 875.2s-.7 27.7-14.9 38.5c0 0-12 4.9-26.6 3.2 0 0 10-45.3 41.5-41.7z"/><path fill="#d84861" d="M1188.8 1724.6c-42.9 52.4 103.8 653.4 228.5 765.6 60 54 878 67.3 1002.5-10.7s245.7-690.3 224.8-755-455.4-93.6-775.8-92.8-630.1 32-680 92.9z"/><ellipse cx="1914.1" cy="2131.4" fill="#fff" rx="133.1" ry="115.8"/></svg>